<?xml version="1.0" encoding="utf-8"?>
<!-- Generator: Adobe Illustrator 17.0.0, SVG Export Plug-In . SVG Version: 6.00 Build 0)  -->
<!DOCTYPE svg PUBLIC "-//W3C//DTD SVG 1.1//EN" "http://www.w3.org/Graphics/SVG/1.1/DTD/svg11.dtd">
<svg version="1.1" id="Capa_1" xmlns="http://www.w3.org/2000/svg" xmlns:xlink="http://www.w3.org/1999/xlink" x="0px" y="0px"
	 width="255.12px" height="221.1px" viewBox="0 0 255.12 221.1" enable-background="new 0 0 255.12 221.1" xml:space="preserve">
<pattern  width="37.357" height="37.357" patternUnits="userSpaceOnUse" id="Nueva_muestra_de_motivo_2" viewBox="0 -37.357 37.357 37.357" overflow="visible">
	<g>
		<polygon fill="none" points="0,0 37.357,0 37.357,-37.357 0,-37.357 		"/>
		<polygon fill="#FFE200" points="37.357,0 0,0 0,-37.357 37.357,-37.357 		"/>
	</g>
</pattern>
<g>
	<g>
		<polygon fill="url(#Nueva_muestra_de_motivo_2)" points="13.789,172.131 49.166,5.911 147.175,5.911 139.977,39.752 
			84.825,39.752 78.145,71.137 134.005,71.137 127.103,103.542 71.241,103.542 56.645,172.131 		"/>
		<path d="M144.087,8.411l-6.134,28.842H86.849h-4.048l-0.843,3.959l-5.616,26.384l-1.286,6.041h6.176h49.683l-5.837,27.405H73.265
			h-4.048l-0.843,3.959l-13.754,64.63H16.877L51.19,8.411H144.087 M150.263,3.411H47.142L10.701,174.63h47.968l14.596-68.589h55.861
			l7.968-37.405H81.233l5.616-26.384h55.152L150.263,3.411L150.263,3.411z M137.093,68.636h0.005H137.093z"/>
	</g>
	<g>
		<polygon fill="url(#Nueva_muestra_de_motivo_2)" points="117.105,172.131 152.482,5.911 250.491,5.911 243.293,39.752 
			188.142,39.752 181.461,71.137 233.021,71.137 226.118,103.542 174.558,103.542 167.159,138.289 224.466,138.289 217.269,172.131 
					"/>
		<path d="M247.404,8.411l-6.134,28.842h-51.104h-4.048l-0.843,3.959l-5.616,26.384l-1.286,6.041h6.176h45.383l-5.837,27.405
			h-47.513h-4.047L171.691,105l-6.335,29.748l-1.287,6.041h6.177h51.132l-6.134,28.842h-95.051l34.313-161.22H247.404
			 M253.579,3.411h-103.12l-36.442,171.22h105.276l8.261-38.842h-57.307l6.335-29.748h51.56l7.967-37.405h-51.56l5.616-26.384
			h55.152L253.579,3.411L253.579,3.411z M236.109,68.636h0.005H236.109z M227.554,135.789h0.005H227.554z"/>
	</g>
</g>
<g>
	<path d="M9.4,180.713h23.198l-1.858,8.738H18.332l-1.263,5.935h11.599l-1.792,8.414H15.276l-3.284,15.43H1.202L9.4,180.713z"/>
	<path d="M48.016,180.713h10.791l-5.421,25.464c-1.961,9.223-6.655,13.81-16.205,13.81c-10.519,0-12.363-4.264-10.335-13.81
		l5.421-25.464H43.05l-5.855,27.513c-0.698,3.291-0.551,4.639,1.499,4.639c2.049,0,2.769-1.348,3.467-4.639L48.016,180.713z"/>
	<path d="M59.931,180.713h23.198l-1.858,8.738H68.863l-1.263,5.935h11.599l-1.792,8.414H65.807l-1.425,6.692h12.892l-1.858,8.738
		H51.733L59.931,180.713z"/>
	<path d="M84.201,180.713h16.183c7.449,0,9.851,3.669,8.484,10.089c-1.308,6.148-4.503,8.738-8.396,9.278l-0.022,0.107
		c2.123,0.162,3.834,1.241,4.474,3.074c0.602,1.726,0.103,4.319-0.382,6.582l-0.676,3.184c-0.455,2.156-0.632,3.992-0.477,4.532
		c0.154,0.54,0.455,0.915,0.889,1.131l-0.11,0.54H92.729c-0.514-0.863-0.029-3.669,0.375-5.557c0.397-1.888,0.654-3.831,1.05-5.719
		c0.705-3.291-0.25-3.882-2.138-3.882h-1.998l-3.225,15.158H76.003L84.201,180.713z M91.532,196.951h1.565
		c1.785,0,3.842-0.808,4.635-4.532c0.676-3.181-0.727-3.937-3.151-3.937h-1.241L91.532,196.951z"/>
	<path d="M120.907,189.451h-10.578l1.858-8.738h23.088l-1.594,7.5l-16.447,22.279h11.658l-1.866,8.738h-23.837l1.572-7.39
		L120.907,189.451z"/>
	<path d="M145.699,213.35h-7.228l-2.336,5.88h-11.107l17.306-38.517h13.545l0.867,38.517h-11.114L145.699,213.35z M147.344,189.128
		h-0.11l-5.84,15.808h4.907L147.344,189.128z"/>
	<path d="M175.287,180.713h23.198l-1.858,8.738H184.22l-1.263,5.935h11.599l-1.792,8.414h-11.599l-1.425,6.692h12.892l-1.858,8.738
		H167.09L175.287,180.713z"/>
	<path d="M212.457,191.827c0.36-1.675,1.014-4.749-1.197-4.749c-2.806,0-3.328,1.943-5.656,12.895
		c-2.402,11.272-2.475,12.892,0.169,12.892c1.726,0,2.791-1.726,3.812-6.527l0.632-2.968h10.468l-0.514,2.428
		c-1.917,9.009-6.633,14.188-16.072,14.188c-13.869,0-12.223-7.717-9.608-20.013c2.534-11.922,4.26-20.013,18.122-20.013
		c11.489,0,11.518,6.203,10.247,12.19l-0.595,2.806h-10.468L212.457,191.827z"/>
</g>
<g>
	<path fill="#BC1413" d="M91.973,172.774c-13.375,0-24.256-10.881-24.256-24.256s10.881-24.256,24.256-24.256
		c13.375,0,24.256,10.881,24.256,24.256S105.348,172.774,91.973,172.774z"/>
	<path d="M91.973,126.762c11.996,0,21.756,9.76,21.756,21.756s-9.76,21.756-21.756,21.756s-21.756-9.76-21.756-21.756
		S79.976,126.762,91.973,126.762 M91.973,121.762c-14.777,0-26.756,11.979-26.756,26.756c0,14.777,11.979,26.756,26.756,26.756
		s26.756-11.979,26.756-26.756C118.729,133.742,106.75,121.762,91.973,121.762L91.973,121.762z"/>
</g>
<circle fill="#BC1413" cx="162.189" cy="215.456" r="5.073"/>
</svg>
