<?xml version="1.0" encoding="UTF-8" standalone="no"?>
<!-- Created with Inkscape (http://www.inkscape.org/) -->
<svg
   xmlns:dc="http://purl.org/dc/elements/1.1/"
   xmlns:cc="http://creativecommons.org/ns#"
   xmlns:rdf="http://www.w3.org/1999/02/22-rdf-syntax-ns#"
   xmlns:svg="http://www.w3.org/2000/svg"
   xmlns="http://www.w3.org/2000/svg"
   xmlns:sodipodi="http://sodipodi.sourceforge.net/DTD/sodipodi-0.dtd"
   xmlns:inkscape="http://www.inkscape.org/namespaces/inkscape"
   width="217.54248"
   height="142"
   id="svg2"
   sodipodi:version="0.32"
   inkscape:version="0.46"
   version="1.0"
   sodipodi:docname="Partido Social Cristiano 01.svg"
   inkscape:output_extension="org.inkscape.output.svg.inkscape">
  <defs
     id="defs4">
    <inkscape:perspective
       sodipodi:type="inkscape:persp3d"
       inkscape:vp_x="0 : 526.18109 : 1"
       inkscape:vp_y="0 : 1000 : 0"
       inkscape:vp_z="744.09448 : 526.18109 : 1"
       inkscape:persp3d-origin="372.04724 : 350.78739 : 1"
       id="perspective10" />
    <inkscape:perspective
       id="perspective3194"
       inkscape:persp3d-origin="372.04724 : 350.78739 : 1"
       inkscape:vp_z="744.09448 : 526.18109 : 1"
       inkscape:vp_y="0 : 1000 : 0"
       inkscape:vp_x="0 : 526.18109 : 1"
       sodipodi:type="inkscape:persp3d" />
    <filter
       inkscape:collect="always"
       id="filter3276"
       x="-0.1212349"
       width="1.2424698"
       y="-0.072039984"
       height="1.14408">
      <feGaussianBlur
         inkscape:collect="always"
         stdDeviation="1.9614904"
         id="feGaussianBlur3278" />
    </filter>
    <filter
       inkscape:collect="always"
       id="filter3418">
      <feGaussianBlur
         inkscape:collect="always"
         stdDeviation="0.98656991"
         id="feGaussianBlur3420" />
    </filter>
    <inkscape:perspective
       id="perspective3514"
       inkscape:persp3d-origin="372.04724 : 350.78739 : 1"
       inkscape:vp_z="744.09448 : 526.18109 : 1"
       inkscape:vp_y="0 : 1000 : 0"
       inkscape:vp_x="0 : 526.18109 : 1"
       sodipodi:type="inkscape:persp3d" />
  </defs>
  <sodipodi:namedview
     id="base"
     pagecolor="#ffffff"
     bordercolor="#666666"
     borderopacity="1.0"
     inkscape:pageopacity="0.0"
     inkscape:pageshadow="2"
     inkscape:zoom="1.4142136"
     inkscape:cx="151.76764"
     inkscape:cy="35.590864"
     inkscape:document-units="px"
     inkscape:current-layer="layer1"
     showgrid="false"
     showguides="true"
     inkscape:guide-bbox="true"
     inkscape:window-width="1024"
     inkscape:window-height="712"
     inkscape:window-x="-4"
     inkscape:window-y="-4" />
  <metadata
     id="metadata7">
    <rdf:RDF>
      <cc:Work
         rdf:about="">
        <dc:format>image/svg+xml</dc:format>
        <dc:type
           rdf:resource="http://purl.org/dc/dcmitype/StillImage" />
      </cc:Work>
    </rdf:RDF>
  </metadata>
  <g
     inkscape:label="Capa 1"
     inkscape:groupmode="layer"
     id="layer1"
     transform="translate(-20,-6.3621869)">
    <rect
       style="opacity:1;fill:#f4dd40;fill-opacity:1;stroke:none;stroke-width:0.1;stroke-linecap:round;stroke-linejoin:bevel;stroke-miterlimit:4;stroke-dasharray:none;stroke-dashoffset:0;stroke-opacity:1"
       id="rect3582"
       width="187.53033"
       height="120.0625"
       x="35"
       y="17.299688" />
    <path
       style="fill:none;fill-rule:evenodd;stroke:#000000;stroke-width:0.16031602;stroke-linecap:butt;stroke-linejoin:miter;stroke-miterlimit:4;stroke-dasharray:none;stroke-opacity:1"
       d="M -50.195755,3.3109004 L -50.244689,3.1057304 L -50.538295,3.4134804 L -50.195755,3.3109004 z"
       id="path2395" />
    <g
       id="g3575"
       transform="matrix(0.6025591,0,0,0.6025591,408.58139,345.32021)">
      <rect
         y="-495.10498"
         x="-573.26257"
         height="127.63277"
         width="43.133514"
         id="rect3524"
         style="opacity:1;fill:#d40000;fill-opacity:1;stroke:none;stroke-width:0.1;stroke-linecap:round;stroke-linejoin:bevel;stroke-miterlimit:4;stroke-dasharray:none;stroke-dashoffset:0;stroke-opacity:1" />
      <rect
         y="-472.83112"
         x="-602.40045"
         height="19.79899"
         width="101.46983"
         id="rect3526"
         style="opacity:1;fill:#d40000;fill-opacity:1;stroke:none;stroke-width:0.1;stroke-linecap:round;stroke-linejoin:bevel;stroke-miterlimit:4;stroke-dasharray:none;stroke-dashoffset:0;stroke-opacity:1" />
      <path
         id="path3534"
         d="M -530.13359,-495.09281 L -551.69219,-520.02641 L -573.24688,-495.0811 L -551.69219,-479.88969 L -530.13359,-495.09281 z"
         style="fill:#d40000;fill-opacity:1;fill-rule:evenodd;stroke:none;stroke-width:1px;stroke-linecap:butt;stroke-linejoin:miter;stroke-opacity:1" />
      <rect
         style="opacity:1;fill:#d40000;fill-opacity:1;stroke:none;stroke-width:0.1;stroke-linecap:round;stroke-linejoin:bevel;stroke-miterlimit:4;stroke-dasharray:none;stroke-dashoffset:0;stroke-opacity:1"
         id="rect3536"
         width="101.46983"
         height="19.79899"
         x="-602.40045"
         y="-420.83112" />
      <path
         id="text3538"
         d="M -523.80106,-502.43884 L -523.80106,-530.20958 L -514.80303,-530.20958 C -511.39327,-530.20956 -509.17061,-530.07064 -508.13503,-529.79283 C -506.54382,-529.37606 -505.21148,-528.46994 -504.13801,-527.07448 C -503.06458,-525.67898 -502.52786,-523.87622 -502.52784,-521.6662 C -502.52786,-519.96129 -502.83727,-518.52792 -503.45605,-517.36609 C -504.07489,-516.20423 -504.86103,-515.2918 -505.81448,-514.6288 C -506.76798,-513.96577 -507.73724,-513.52692 -508.72227,-513.31224 C -510.06094,-513.04703 -511.99945,-512.91443 -514.53783,-512.91444 L -518.19387,-512.91444 L -518.19387,-502.43884 L -523.80106,-502.43884 z M -518.19387,-525.51167 L -518.19387,-517.6313 L -515.12507,-517.6313 C -512.91504,-517.63128 -511.43747,-517.77651 -510.69236,-518.06699 C -509.94728,-518.35744 -509.36319,-518.81207 -508.94011,-519.4309 C -508.51707,-520.04969 -508.30553,-520.76953 -508.30551,-521.59043 C -508.30553,-522.60071 -508.60231,-523.43421 -509.19585,-524.09093 C -509.78942,-524.7476 -510.54083,-525.15804 -511.45009,-525.32224 C -512.11943,-525.4485 -513.46439,-525.51165 -515.48499,-525.51167 L -518.19387,-525.51167 z M -525.2218,-462.98014 L -519.76616,-463.51055 C -519.43781,-461.67937 -518.77164,-460.3344 -517.76765,-459.47565 C -516.76367,-458.61689 -515.40923,-458.18751 -513.70433,-458.18751 C -511.89842,-458.18751 -510.53767,-458.56953 -509.62207,-459.33357 C -508.7065,-460.09761 -508.2487,-460.9911 -508.24869,-462.01404 C -508.2487,-462.67073 -508.44129,-463.22955 -508.82645,-463.69051 C -509.21165,-464.15145 -509.88413,-464.55242 -510.8439,-464.89341 C -511.50062,-465.12071 -512.99713,-465.52483 -515.33344,-466.10577 C -518.33911,-466.85086 -520.44812,-467.76645 -521.66048,-468.85254 C -523.36537,-470.38061 -524.21781,-472.24335 -524.21781,-474.44078 C -524.21781,-475.85519 -523.81685,-477.17805 -523.01492,-478.40938 C -522.21299,-479.64067 -521.05746,-480.57835 -519.54831,-481.22245 C -518.03917,-481.86649 -516.21747,-482.18853 -514.08319,-482.18855 C -510.59766,-482.18853 -507.97403,-481.42448 -506.21229,-479.89643 C -504.45059,-478.36832 -503.52554,-476.32877 -503.43711,-473.77777 L -509.0443,-473.53151 C -509.28426,-474.95854 -509.79889,-475.98463 -510.58817,-476.60978 C -511.37749,-477.23488 -512.56144,-477.54744 -514.14002,-477.54747 C -515.76915,-477.54744 -517.04466,-477.21278 -517.96655,-476.54348 C -518.56011,-476.11408 -518.85689,-475.53947 -518.85688,-474.81965 C -518.85689,-474.16293 -518.57906,-473.60095 -518.02338,-473.1337 C -517.31618,-472.54013 -515.59866,-471.92132 -512.87083,-471.27727 C -510.14302,-470.63318 -508.12557,-469.96701 -506.81847,-469.27876 C -505.51141,-468.59047 -504.48848,-467.64963 -503.74967,-466.45622 C -503.01091,-465.26279 -502.64152,-463.78838 -502.6415,-462.03298 C -502.64152,-460.44175 -503.08353,-458.95155 -503.96752,-457.56238 C -504.85156,-456.17321 -506.10181,-455.14081 -507.71828,-454.46517 C -509.33478,-453.78953 -511.34907,-453.45171 -513.76116,-453.45171 C -517.27198,-453.45171 -519.96822,-454.26311 -521.84991,-455.88591 C -523.7316,-457.50871 -524.85557,-459.87345 -525.2218,-462.98014 L -525.2218,-462.98014 z M -506.03233,-415.66001 L -500.59563,-413.93618 C -501.42916,-410.90526 -502.81517,-408.65418 -504.75366,-407.18292 C -506.6922,-405.71167 -509.15166,-404.97604 -512.13204,-404.97604 C -515.81966,-404.97604 -518.85057,-406.23576 -521.22478,-408.75521 C -523.599,-411.27465 -524.78611,-414.71915 -524.78611,-419.08873 C -524.78611,-423.71085 -523.59269,-427.30059 -521.20584,-429.85794 C -518.819,-432.41525 -515.68075,-433.69392 -511.79106,-433.69394 C -508.39393,-433.69392 -505.63454,-432.68993 -503.51288,-430.68197 C -502.25003,-429.49484 -501.30287,-427.78995 -500.6714,-425.56731 L -506.22176,-424.24128 C -506.55013,-425.68095 -507.23524,-426.81754 -508.2771,-427.65106 C -509.31899,-428.48454 -510.58503,-428.90129 -512.07521,-428.90131 C -514.13372,-428.90129 -515.80388,-428.1625 -517.08569,-426.68496 C -518.36752,-425.20737 -519.00843,-422.81421 -519.00843,-419.50548 C -519.00843,-415.99466 -518.37699,-413.49416 -517.11411,-412.00397 C -515.85124,-410.51377 -514.20949,-409.76867 -512.18887,-409.76867 C -510.69869,-409.76867 -509.41687,-410.24225 -508.3434,-411.18941 C -507.26997,-412.13657 -506.49962,-413.62676 -506.03233,-415.66001 L -506.03233,-415.66001 z"
         style="font-size:147.57373047px;font-style:normal;font-weight:normal;line-height:125%;fill:#ffffff;fill-opacity:1;stroke:none;stroke-width:1px;stroke-linecap:butt;stroke-linejoin:miter;stroke-opacity:1;font-family:Bitstream Vera Sans"
         transform="scale(1.0756495,0.9296708)" />
    </g>
    <g
       id="g3569"
       transform="matrix(0.6025591,0,0,0.6025591,322.32548,344.11509)">
      <path
         transform="matrix(-0.3152499,0.8582606,-1.0660753,-5.4893038e-2,-408.93945,-89.033013)"
         d="M -323.14781,-33.716034 A 59.043415,61.164738 0 1 1 -441.23464,-33.716034 A 59.043415,61.164738 0 1 1 -323.14781,-33.716034 z"
         sodipodi:ry="61.164738"
         sodipodi:rx="59.043415"
         sodipodi:cy="-33.716034"
         sodipodi:cx="-382.19122"
         id="path3552"
         style="opacity:1;fill:#d40000;fill-opacity:1;stroke:none;stroke-width:0.1;stroke-linecap:round;stroke-linejoin:bevel;stroke-miterlimit:4;stroke-dasharray:none;stroke-dashoffset:0;stroke-opacity:1"
         sodipodi:type="arc" />
      <path
         transform="matrix(0.6130255,0.7900631,-0.7900631,0.6130255,-31.147653,-54.279613)"
         d="M -406.58638,-45.383297 A 16.970562,19.79899 0 1 1 -440.52751,-45.383297 A 16.970562,19.79899 0 1 1 -406.58638,-45.383297 z"
         sodipodi:ry="19.79899"
         sodipodi:rx="16.970562"
         sodipodi:cy="-45.383297"
         sodipodi:cx="-423.55695"
         id="path3554"
         style="opacity:1;fill:#f4dd40;fill-opacity:1;stroke:none;stroke-width:0.1;stroke-linecap:round;stroke-linejoin:bevel;stroke-miterlimit:4;stroke-dasharray:none;stroke-dashoffset:0;stroke-opacity:1"
         sodipodi:type="arc" />
      <path
         sodipodi:nodetypes="ccccccsc"
         id="path3561"
         d="M -242.33661,-457.27477 L -236.67976,-463.63873 L -187.71261,-504.96029 L -252.70015,-505.00448 L -285.50916,-474.77275 L -297.3016,-463.12985 C -297.3016,-463.12985 -324.00745,-436.41512 -320.47191,-404.77209 L -242.33661,-457.27477 z"
         style="fill:#d40000;fill-opacity:1;fill-rule:evenodd;stroke:none;stroke-width:1px;stroke-linecap:butt;stroke-linejoin:miter;stroke-opacity:1" />
      <path
         id="text3563"
         d="M -328.83635,-487.00534 L -323.21127,-513.95423 L -319.60828,-513.95423 L -324.58997,-490.05685 L -310.60081,-490.05685 L -311.2442,-487.00534 L -328.83635,-487.00534 z M -310.14124,-487.00534 L -294.8653,-513.95423 L -290.61892,-513.95423 L -286.17033,-487.00534 L -289.66303,-487.00534 L -290.96819,-494.7628 L -301.86907,-494.7628 L -306.18898,-487.00534 L -310.14124,-487.00534 z M -300.32493,-497.53857 L -291.40937,-497.53857 L -292.45718,-504.30337 C -292.86162,-506.98721 -293.11284,-509.22375 -293.21087,-511.01302 C -293.82364,-509.46885 -294.71826,-507.63672 -295.89473,-505.51662 L -300.32493,-497.53857 z"
         style="font-size:60.89866257px;font-style:normal;font-weight:normal;line-height:125%;fill:#d40000;fill-opacity:1;stroke:none;stroke-width:1px;stroke-linecap:butt;stroke-linejoin:miter;stroke-opacity:1;font-family:Bitstream Vera Sans" />
    </g>
  </g>
</svg>
